HIERARCHY
ROOT Hips
{
  OFFSET 0.0903693 103.806 1.49371
  CHANNELS 6 Xposition Yposition Zposition Zrotation Xrotation Yrotation
  JOINT Spine
  {
    OFFSET 0 10.1816 0.1315
    CHANNELS 6 Xposition Yposition Zposition Zrotation Xrotation Yrotation
    JOINT Spine1
    {
      OFFSET 0 10.0835 -1.0008
      CHANNELS 6 Xposition Yposition Zposition Zrotation Xrotation Yrotation
      JOINT Spine2
      {
        OFFSET 0 9.1 -1.3734
        CHANNELS 6 Xposition Yposition Zposition Zrotation Xrotation Yrotation
        JOINT Neck
        {
          OFFSET 0 16.6717 -2.5162
          CHANNELS 6 Xposition Yposition Zposition Zrotation Xrotation Yrotation
          JOINT Head
          {
            OFFSET 0 9.6179 1.685
            CHANNELS 6 Xposition Yposition Zposition Zrotation Xrotation Yrotation
            JOINT HeadTop_End
            {
              OFFSET 0 17.8152 2.585
              CHANNELS 6 Xposition Yposition Zposition Zrotation Xrotation Yrotation
              End Site
              {
                OFFSET 0 0 0
              }
            }
            JOINT LeftEye
            {
              OFFSET 3.0676 6.4095 9.2836
              CHANNELS 6 Xposition Yposition Zposition Zrotation Xrotation Yrotation
              End Site
              {
                OFFSET 0 0 0
              }
            }
            JOINT RightEye
            {
              OFFSET -3.0676 6.4095 9.2835
              CHANNELS 6 Xposition Yposition Zposition Zrotation Xrotation Yrotation
              End Site
              {
                OFFSET 0 0 0
              }
            }
          }
        }
        JOINT LeftShoulder
        {
          OFFSET 4.5704 10.946 -2.628
          CHANNELS 6 Xposition Yposition Zposition Zrotation Xrotation Yrotation
          JOINT LeftArm
          {
            OFFSET 10.5924 -0.5246 -2.2321
            CHANNELS 6 Xposition Yposition Zposition Zrotation Xrotation Yrotation
            JOINT LeftForeArm
            {
              OFFSET 27.8415 -0.0001 0
              CHANNELS 6 Xposition Yposition Zposition Zrotation Xrotation Yrotation
              JOINT LeftHand
              {
                OFFSET 28.3288 0 0
                CHANNELS 6 Xposition Yposition Zposition Zrotation Xrotation Yrotation
                JOINT LeftHandThumb1
                {
                  OFFSET 2.4661 -1.575 2.6824
                  CHANNELS 6 Xposition Yposition Zposition Zrotation Xrotation Yrotation
                  JOINT LeftHandThumb2
                  {
                    OFFSET 3.2298 -1.8647 1.8647
                    CHANNELS 6 Xposition Yposition Zposition Zrotation Xrotation Yrotation
                    JOINT LeftHandThumb3
                    {
                      OFFSET 2.6526 -1.5315 1.5315
                      CHANNELS 6 Xposition Yposition Zposition Zrotation Xrotation Yrotation
                      End Site
                      {
                        OFFSET 1.9546 -1.1285 1.1285
                      }
                    }
                  }
                }
                JOINT LeftHandIndex1
                {
                  OFFSET 9.1093 -0.5171 2.2601
                  CHANNELS 6 Xposition Yposition Zposition Zrotation Xrotation Yrotation
                  JOINT LeftHandIndex2
                  {
                    OFFSET 3.6764 0 0
                    CHANNELS 6 Xposition Yposition Zposition Zrotation Xrotation Yrotation
                    JOINT LeftHandIndex3
                    {
                      OFFSET 2.8831 0 0
                      CHANNELS 6 Xposition Yposition Zposition Zrotation Xrotation Yrotation
                      End Site
                      {
                        OFFSET 2.3927 0 0
                      }
                    }
                  }
                }
                JOINT LeftHandMiddle1
                {
                  OFFSET 9.5334 0 0
                  CHANNELS 6 Xposition Yposition Zposition Zrotation Xrotation Yrotation
                  JOINT LeftHandMiddle2
                  {
                    OFFSET 3.6982 0 0
                    CHANNELS 6 Xposition Yposition Zposition Zrotation Xrotation Yrotation
                    JOINT LeftHandMiddle3
                    {
                      OFFSET 2.9509 0 0
                      CHANNELS 6 Xposition Yposition Zposition Zrotation Xrotation Yrotation
                      End Site
                      {
                        OFFSET 2.8339 0 0
                      }
                    }
                  }
                }
                JOINT LeftHandRing1
                {
                  OFFSET 9.1045 -0.0439 -1.8651
                  CHANNELS 6 Xposition Yposition Zposition Zrotation Xrotation Yrotation
                  JOINT LeftHandRing2
                  {
                    OFFSET 3.154 0 0
                    CHANNELS 6 Xposition Yposition Zposition Zrotation Xrotation Yrotation
                    JOINT LeftHandRing3
                    {
                      OFFSET 2.9377 0 0
                      CHANNELS 6 Xposition Yposition Zposition Zrotation Xrotation Yrotation
                      End Site
                      {
                        OFFSET 2.6475 0 0
                      }
                    }
                  }
                }
                JOINT LeftHandPinky1
                {
                  OFFSET 8.0778 -0.4887 -3.8061
                  CHANNELS 6 Xposition Yposition Zposition Zrotation Xrotation Yrotation
                  JOINT LeftHandPinky2
                  {
                    OFFSET 3.6 0 0
                    CHANNELS 6 Xposition Yposition Zposition Zrotation Xrotation Yrotation
                    JOINT LeftHandPinky3
                    {
                      OFFSET 2.1142 0 0
                      CHANNELS 6 Xposition Yposition Zposition Zrotation Xrotation Yrotation
                      End Site
                      {
                        OFFSET 1.9757 0 0
                      }
                    }
                  }
                }
              }
            }
          }
        }
        JOINT RightShoulder
        {
          OFFSET -4.57 10.9462 -2.628
          CHANNELS 6 Xposition Yposition Zposition Zrotation Xrotation Yrotation
          JOINT RightArm
          {
            OFFSET -10.5928 -0.5248 -2.2321
            CHANNELS 6 Xposition Yposition Zposition Zrotation Xrotation Yrotation
            JOINT RightForeArm
            {
              OFFSET -27.8415 0 0
              CHANNELS 6 Xposition Yposition Zposition Zrotation Xrotation Yrotation
              JOINT RightHand
              {
                OFFSET -28.3288 0 0.0001
                CHANNELS 6 Xposition Yposition Zposition Zrotation Xrotation Yrotation
                JOINT RightHandPinky1
                {
                  OFFSET -8.0767 -0.4885 -3.806
                  CHANNELS 6 Xposition Yposition Zposition Zrotation Xrotation Yrotation
                  JOINT RightHandPinky2
                  {
                    OFFSET -3.6 0 0.0001
                    CHANNELS 6 Xposition Yposition Zposition Zrotation Xrotation Yrotation
                    JOINT RightHandPinky3
                    {
                      OFFSET -2.1142 0 0
                      CHANNELS 6 Xposition Yposition Zposition Zrotation Xrotation Yrotation
                      End Site
                      {
                        OFFSET -1.9757 0 0
                      }
                    }
                  }
                }
                JOINT RightHandRing1
                {
                  OFFSET -9.1036 -0.0439 -1.8651
                  CHANNELS 6 Xposition Yposition Zposition Zrotation Xrotation Yrotation
                  JOINT RightHandRing2
                  {
                    OFFSET -3.154 0 0
                    CHANNELS 6 Xposition Yposition Zposition Zrotation Xrotation Yrotation
                    JOINT RightHandRing3
                    {
                      OFFSET -2.9377 0 0
                      CHANNELS 6 Xposition Yposition Zposition Zrotation Xrotation Yrotation
                      End Site
                      {
                        OFFSET -2.6475 0 0
                      }
                    }
                  }
                }
                JOINT RightHandMiddle1
                {
                  OFFSET -9.5325 0 0
                  CHANNELS 6 Xposition Yposition Zposition Zrotation Xrotation Yrotation
                  JOINT RightHandMiddle2
                  {
                    OFFSET -3.6982 0 0
                    CHANNELS 6 Xposition Yposition Zposition Zrotation Xrotation Yrotation
                    JOINT RightHandMiddle3
                    {
                      OFFSET -2.9509 0 0
                      CHANNELS 6 Xposition Yposition Zposition Zrotation Xrotation Yrotation
                      End Site
                      {
                        OFFSET -2.8339 0 0.0001
                      }
                    }
                  }
                }
                JOINT RightHandIndex1
                {
                  OFFSET -9.1083 -0.5168 2.2601
                  CHANNELS 6 Xposition Yposition Zposition Zrotation Xrotation Yrotation
                  JOINT RightHandIndex2
                  {
                    OFFSET -3.6764 0 0
                    CHANNELS 6 Xposition Yposition Zposition Zrotation Xrotation Yrotation
                    JOINT RightHandIndex3
                    {
                      OFFSET -2.8831 0 0
                      CHANNELS 6 Xposition Yposition Zposition Zrotation Xrotation Yrotation
                      End Site
                      {
                        OFFSET -2.3927 0 0
                      }
                    }
                  }
                }
                JOINT RightHandThumb1
                {
                  OFFSET -2.4648 -1.5727 2.6826
                  CHANNELS 6 Xposition Yposition Zposition Zrotation Xrotation Yrotation
                  JOINT RightHandThumb2
                  {
                    OFFSET -3.2298 -1.8647 1.8647
                    CHANNELS 6 Xposition Yposition Zposition Zrotation Xrotation Yrotation
                    JOINT RightHandThumb3
                    {
                      OFFSET -2.6526 -1.5314 1.5314
                      CHANNELS 6 Xposition Yposition Zposition Zrotation Xrotation Yrotation
                      End Site
                      {
                        OFFSET -1.9546 -1.1285 1.1285
                      }
                    }
                  }
                }
              }
            }
          }
        }
      }
    }
  }
  JOINT LeftUpLeg
  {
    OFFSET 8.2078 -6.7517 -1.5996
    CHANNELS 6 Xposition Yposition Zposition Zrotation Xrotation Yrotation
    JOINT LeftLeg
    {
      OFFSET 0 -44.3705 0.2846
      CHANNELS 6 Xposition Yposition Zposition Zrotation Xrotation Yrotation
      JOINT LeftFoot
      {
        OFFSET 0 -44.4279 -2.9822
        CHANNELS 6 Xposition Yposition Zposition Zrotation Xrotation Yrotation
        JOINT LeftToeBase
        {
          OFFSET 0 -8.7287 10.7106
          CHANNELS 6 Xposition Yposition Zposition Zrotation Xrotation Yrotation
          End Site
          {
            OFFSET 0 -0.0007 9.2781
          }
        }
      }
    }
  }
  JOINT RightUpLeg
  {
    OFFSET -8.2078 -6.7517 -1.5996
    CHANNELS 6 Xposition Yposition Zposition Zrotation Xrotation Yrotation
    JOINT RightLeg
    {
      OFFSET 0 -44.3705 0.2862
      CHANNELS 6 Xposition Yposition Zposition Zrotation Xrotation Yrotation
      JOINT RightFoot
      {
        OFFSET 0 -44.4277 -2.9838
        CHANNELS 6 Xposition Yposition Zposition Zrotation Xrotation Yrotation
        JOINT RightToeBase
        {
          OFFSET 0 -8.7287 10.7106
          CHANNELS 6 Xposition Yposition Zposition Zrotation Xrotation Yrotation
          End Site
          {
            OFFSET 0 -0.0007 9.2781
          }
        }
      }
    }
  }
}
MOTION
Frames:	4
Frame Time:	0.0333333
0.52989 104.449 2.46635 -4.27974 -1.59999 -10.0127 0 10.1816 0.1315 -1.9868 1.24837 -1.79475 0 10.0835 -1.0008 -0.551763 -3.96793 -0.391643 -3.55271e-015 9.1 -1.3734 -0.554096 -3.9658 -0.387952 0 16.6717 -2.5162 -9.03252 3.61402 5.0132 0 9.6179 1.685 -17.12 -20.4091 -5.67758 -1.42109e-014 17.8152 2.585 -1.59028e-015 -3.18055e-015 -3.18055e-015 3.0676 6.4095 9.2836 -1.59028e-015 -3.18055e-015 -3.18055e-015 -3.0676 6.4095 9.2835 -1.59028e-015 -3.18055e-015 -3.18055e-015 4.5704 10.946 -2.628 -21.94 2.13137 2.30809 10.5924 -0.5246 -2.2321 -42.5576 10.2957 -10.2458 27.8415 -0.0001 -3.55271e-015 -0.000210979 -2.19611e-006 -4.98522 28.3288 1.42109e-014 0 8.5207 -9.22314 -1.54905 2.4661 -1.575 2.6824 21.9968 -5.47274 -2.16367 3.2298 -1.8647 1.8647 -14.303 14.4961 17.4585 2.6526 -1.5315 1.5315 15.7913 -21.6888 -8.09484 9.1093 -0.5171 2.2601 -18.3241 -0.798351 -2.78672 3.6764 0 -7.10543e-015 -31.943 -0.885756 3.09415 2.8831 -1.77636e-015 0 -20.4944 -0.370091 2.04699 9.5334 0 0 -21.0423 -1.17899 3.61619 3.6982 7.10543e-015 0 -30.5745 -0.813217 2.97463 2.9509 0 0 -25.7338 -0.580022 2.53883 9.1045 -0.0439 -1.8651 -27.9902 -1.73287 7.3649 3.154 7.10543e-015 0 -34.6295 -1.03638 3.32359 2.9377 -7.10543e-015 0 -35.5237 -1.0889 3.39839 8.0778 -0.4887 -3.8061 -28.2596 -10.2674 5.51585 3.6 3.55271e-015 0 -33.055 -0.946799 3.18997 2.1142 3.55271e-015 0 -27.0384 -0.639224 2.65818 -4.57 10.9462 -2.628 9.7144 1.72802 -2.82619 -10.5928 -0.5248 -2.2321 69.6233 -16.841 -11.8553 -27.8415 0 0 -7.23681e-007 -9.17079e-007 9.51547 -28.3288 0 0.0001 -7.70458 15.8418 8.44457 -8.0767 -0.4885 -3.806 23.6937 -15.8183 -11.0259 -3.6 0 0.0001 30.736 -0.651324 -2.37106 -2.1142 -3.55271e-015 -1.77636e-015 23.2431 -0.376735 -1.83166 -9.1036 -0.0439 -1.8651 30.2636 -1.74339 -3.30288 -3.154 0 -1.77636e-015 35.596 -0.867607 -2.70216 -2.9377 3.55271e-015 0 22.9559 -0.367603 -1.81025 -9.5325 0 -1.77636e-015 23.0657 -1.20049 1.70026 -3.6982 0 1.77636e-015 34.7428 -0.82777 -2.6456 -2.9509 -3.55271e-015 -1.77636e-015 28.1919 -0.550714 -2.19492 -9.1083 -0.5168 2.2601 8.48002 -0.270526 6.28316 -3.6764 0 0 36.5804 -0.914616 -2.76666 -2.8831 -1.55431e-015 0 27.5463 -0.526251 -2.14663 -2.4648 -1.5727 2.6826 -14.1065 -4.0764 2.0871 -3.2298 -1.8647 1.8647 5.83741 16.0175 -16.9931 -2.6526 -1.5314 1.5314 -10.8753 -21.5711 12.0797 8.2078 -6.7517 -1.5996 8.16264 -2.96136 10.7046 1.77636e-015 -44.3705 0.2846 -0.245094 18.5014 6.12038 1.77636e-015 -44.4279 -2.9822 -10.7905 -7.4909 1.49492 0 -8.7287 10.7106 -1.52051e-006 -4.38827 2.61378e-006 -8.2078 -6.7517 -1.5996 -5.5153 -0.996378 -11.9057 0 -44.3705 0.2862 1.32733 11.5647 0.977213 -3.55271e-015 -44.4277 -2.9838 13.5654 2.49608 1.56533 -3.55271e-015 -8.7287 10.7106 -4.27853 -4.62977 -0.16171 
0.791984 104.996 2.26877 -4.51714 -1.36961 -10.5349 0 10.1816 0.1315 -1.88435 1.55865 -1.96289 0 10.0835 -1.0008 -0.580489 -4.06994 -0.443948 1.77636e-015 9.1 -1.3734 -0.583162 -4.0674 -0.439534 1.77636e-015 16.6717 -2.5162 -10.0777 4.16563 5.8508 -1.42109e-014 9.6179 1.685 -16.7274 -22.0998 -4.99547 1.42109e-014 17.8152 2.585 4.77083e-015 -6.36111e-015 1.59028e-015 3.0676 6.4095 9.2836 4.77083e-015 -6.36111e-015 1.59028e-015 -3.0676 6.4095 9.2835 4.77083e-015 -6.36111e-015 1.59028e-015 4.5704 10.946 -2.628 -22.1972 1.99891 2.90548 10.5924 -0.5246 -2.2321 -42.3438 12.8246 -10.7636 27.8415 -0.0001 -3.55271e-015 -0.000203785 -1.47352e-006 -7.00407 28.3288 7.10543e-015 -3.55271e-015 4.98559 -7.02325 -1.12882 2.4661 -1.575 2.6824 21.9968 -5.47274 -2.16367 3.2298 -1.8647 1.8647 -14.0247 14.4501 16.8546 2.6526 -1.5315 1.5315 16.3556 -22.2907 -9.24495 9.1093 -0.5171 2.2601 -17.6651 -0.876183 -3.29409 3.6764 0 0 -31.7122 -0.873338 3.0741 2.8831 1.77636e-015 0 -20.0296 -0.353659 2.00248 9.5334 0 0 -20.8642 -1.16518 3.30972 3.6982 7.10543e-015 0 -30.5387 -0.811367 2.97148 2.9509 -8.88178e-015 -3.55271e-015 -25.663 -0.576879 2.53233 9.1045 -0.0439 -1.8651 -27.7384 -1.71266 7.08821 3.154 0 0 -34.7287 -1.04215 3.33193 2.9377 -7.10543e-015 0 -35.3214 -1.07691 3.38153 8.0778 -0.4887 -3.8061 -27.8758 -10.2758 5.21982 3.6 0 3.55271e-015 -33.0783 -0.948103 3.19196 2.1142 3.55271e-015 0 -27.0172 -0.63824 2.65626 -4.57 10.9462 -2.628 8.72727 1.688 -2.96936 -10.5928 -0.5248 -2.2321 70.3773 -13.3301 -14.7665 -27.8415 7.10543e-015 0 1.03841e-005 -2.2929e-006 12.8911 -28.3288 0 0.0001 -2.84899 16.7864 11.6095 -8.0767 -0.4885 -3.806 23.1181 -15.7626 -10.9732 -3.6 0 0.0001 31.7215 -0.692716 -2.43939 -2.1142 0 0 23.6608 -0.390206 -1.86271 -9.1036 -0.0439 -1.8651 31.0648 -1.80344 -2.95385 -3.154 0 0 36.8667 -0.928501 -2.78527 -2.9377 -7.10543e-015 -1.77636e-015 22.7799 -0.362063 -1.79711 -9.5325 7.10543e-015 0 24.0258 -1.26442 1.91832 -3.6982 0 -3.55271e-015 34.7961 -0.830234 -2.64916 -2.9509 -3.55271e-015 3.55271e-015 28.1859 -0.550483 -2.19448 -9.1083 -0.5168 2.2601 8.14264 -0.257233 6.73786 -3.6764 7.10543e-015 0 36.4495 -0.908303 -2.75813 -2.8831 -1.77636e-015 0 27.3649 -0.519475 -2.13358 -2.4648 -1.5727 2.6826 -14.1065 -4.0764 2.0871 -3.2298 -1.8647 1.8647 6.01961 16.0505 -17.3729 -2.6526 -1.5314 1.5314 -11.8502 -21.978 13.4177 8.2078 -6.7517 -1.5996 8.88779 -3.64571 11.0788 0 -44.3705 0.2846 -0.415757 19.0614 5.87336 1.77636e-015 -44.4279 -2.9822 -13.6922 -4.59506 1.57625 0 -8.7287 10.7106 0.30649 -6.84692 0.0355957 -8.2078 -6.7517 -1.5996 -5.4994 -2.05236 -11.62 3.55271e-015 -44.3705 0.2862 1.17976 12.0172 0.995437 0 -44.4277 -2.9838 14.6305 5.89722 0.811307 -3.55271e-015 -8.7287 10.7106 -5.42837 -6.35782 -0.307477 
1.02629 105.366 2.04323 -4.49673 -1.08169 -10.6454 -1.77636e-015 10.1816 0.1315 -2.02584 1.81098 -2.14315 1.77636e-015 10.0835 -1.0008 -0.662148 -4.13445 -0.49962 0 9.1 -1.3734 -0.665082 -4.13135 -0.494504 -1.77636e-015 16.6717 -2.5162 -10.886 4.5722 6.50802 7.10543e-015 9.6179 1.685 -16.1849 -23.7828 -4.67478 0 17.8152 2.585 6.36111e-015 0 -0 3.0676 6.4095 9.2836 6.36111e-015 0 -0 -3.0676 6.4095 9.2835 6.36111e-015 0 -0 4.5704 10.946 -2.628 -22.5238 1.91951 3.28612 10.5924 -0.5246 -2.2321 -41.5452 16.5568 -10.9015 27.8415 -0.0001 3.55271e-015 -0.000200737 -2.41428e-007 -10.065 28.3288 0 0 0.717901 -6.21083 -2.63823 2.4661 -1.575 2.6824 21.9968 -5.47274 -2.16367 3.2298 -1.8647 1.8647 -13.9633 14.4415 16.7222 2.6526 -1.5315 1.5315 16.6365 -22.568 -9.75712 9.1093 -0.5171 2.2601 -17.8594 -0.896526 -3.43198 3.6764 7.10543e-015 0 -31.7406 -0.874855 3.07658 2.8831 0 -7.10543e-015 -19.8344 -0.346872 1.98374 9.5334 -7.10543e-015 -1.42109e-014 -21.0966 -1.18254 3.21216 3.6982 0 -7.10543e-015 -30.5719 -0.813081 2.9744 2.9509 5.32907e-015 0 -25.6141 -0.574718 2.52782 9.1045 -0.0439 -1.8651 -27.9116 -1.72789 6.9621 3.154 0 -3.55271e-015 -34.899 -1.05209 3.34623 2.9377 0 0 -35.2623 -1.07342 3.3766 8.0778 -0.4887 -3.8061 -27.943 -10.2974 5.11956 3.6 0 0 -33.1871 -0.954178 3.20127 2.1142 -3.55271e-015 0 -27.0697 -0.640674 2.66104 -4.57 10.9462 -2.628 8.07023 1.65707 -3.11284 -10.5928 -0.5248 -2.2321 71.3253 -9.81764 -17.656 -27.8415 0 3.55271e-015 2.3339e-005 1.11573e-005 15.7951 -28.3288 -7.10543e-015 0.0001 1.60009 14.545 15.6917 -8.0767 -0.4885 -3.806 22.846 -15.6943 -11.1332 -3.6 0 0.0001 32.2957 -0.71737 -2.47887 -2.1142 -7.10543e-015 0 24.039 -0.402597 -1.89074 -9.1036 -0.0439 -1.8651 31.6291 -1.847 -3.15062 -3.154 8.88178e-016 0 37.8437 -0.976558 -2.84824 -2.9377 0 0 22.7756 -0.361927 -1.79678 -9.5325 0 0 24.9267 -1.33074 1.4767 -3.6982 0 -3.55271e-015 35.1207 -0.845305 -2.67072 -2.9509 -7.10543e-015 -1.77636e-015 28.0558 -0.545516 -2.18518 -9.1083 -0.5168 2.2601 9.39994 -0.325134 6.42272 -3.6764 0 1.06581e-014 36.8429 -0.927338 -2.78372 -2.8831 -1.77636e-015 0 27.2333 -0.514582 -2.1241 -2.4648 -1.5727 2.6826 -14.1065 -4.0764 2.0871 -3.2298 -1.8647 1.8647 5.86842 16.0286 -17.0553 -2.6526 -1.5314 1.5314 -11.8565 -22.003 13.4519 8.2078 -6.7517 -1.5996 9.42338 -4.46666 11.5151 1.77636e-015 -44.3705 0.2846 -0.58072 19.6245 5.37689 1.77636e-015 -44.4279 -2.9822 -16.1457 -2.18234 1.5429 -1.77636e-015 -8.7287 10.7106 1.17272 -9.38317 0.177467 -8.2078 -6.7517 -1.5996 -5.73891 -3.30333 -11.4897 0 -44.3705 0.2862 1.09927 12.9027 0.993947 0 -44.4277 -2.9838 15.3322 8.23078 0.104994 3.55271e-015 -8.7287 10.7106 -6.26817 -7.4628 -0.424959 
1.22753 105.514 1.82382 -4.39849 -0.843908 -10.2845 -8.88178e-016 10.1816 0.1315 -2.23531 1.97617 -2.32036 0 10.0835 -1.0008 -0.777281 -4.14943 -0.557216 -1.77636e-015 9.1 -1.3734 -0.780284 -4.14559 -0.551715 0 16.6717 -2.5162 -11.466 4.90358 6.95751 -7.10543e-015 9.6179 1.685 -15.6652 -25.153 -4.70787 1.42109e-014 17.8152 2.585 2.38542e-015 -3.18055e-015 -3.18055e-015 3.0676 6.4095 9.2836 2.38542e-015 -3.18055e-015 -3.18055e-015 -3.0676 6.4095 9.2835 2.38542e-015 -3.18055e-015 -3.18055e-015 4.5704 10.946 -2.628 -22.8289 1.92598 3.30439 10.5924 -0.5246 -2.2321 -40.6628 20.3976 -10.8989 27.8415 -0.0001 -2.66454e-015 -0.000213667 -3.11549e-006 -13.2947 28.3288 0 0 -2.22241 -6.93574 -4.89292 2.4661 -1.575 2.6824 21.9968 -5.47274 -2.16367 3.2298 -1.8647 1.8647 -13.9759 14.444 16.7507 2.6526 -1.5315 1.5315 16.581 -22.5148 -9.61983 9.1093 -0.5171 2.2601 -18.4682 -0.940795 -3.31896 3.6764 0 0 -31.9253 -0.884817 3.0926 2.8831 3.55271e-015 -1.42109e-014 -19.7673 -0.344546 1.9773 9.5334 7.10543e-015 -7.10543e-015 -21.4618 -1.21027 3.23158 3.6982 0 0 -30.6429 -0.816778 2.98065 2.9509 -1.77636e-015 0 -25.5585 -0.572266 2.52271 9.1045 -0.0439 -1.8651 -28.1905 -1.75166 6.97241 3.154 0 0 -35.0698 -1.0621 3.36053 2.9377 0 3.55271e-015 -35.2471 -1.07252 3.37533 8.0778 -0.4887 -3.8061 -28.2046 -10.3157 5.1641 3.6 0 -7.10543e-015 -33.3318 -0.96228 3.21363 2.1142 0 0 -27.1085 -0.642481 2.66457 -4.57 10.9462 -2.628 7.60945 1.63733 -3.22812 -10.5928 -0.5248 -2.2321 72.5528 -7.59508 -19.8892 -27.8415 0 3.55271e-015 -1.23869e-006 -4.57951e-007 18.085 -28.3288 0 0.0001 4.25974 10.9484 17.8856 -8.0767 -0.4885 -3.806 22.8569 -15.6334 -11.3589 -3.6 3.55271e-015 0.0001 32.52 -0.727111 -2.49422 -2.1142 0 0 24.2427 -0.409348 -1.90581 -9.1036 -0.0439 -1.8651 31.8678 -1.86589 -3.43269 -3.154 4.44089e-016 0 38.4268 -1.00576 -2.88543 -2.9377 0 0 22.8119 -0.363059 -1.7995 -9.5325 -7.10543e-015 0 25.4855 -1.37356 1.05186 -3.6982 0 0 35.5073 -0.86342 -2.6963 -2.9509 7.10543e-015 -3.55271e-015 27.9344 -0.540901 -2.17649 -9.1083 -0.5168 2.2601 10.5894 -0.387868 6.06543 -3.6764 0 3.55271e-015 37.1605 -0.942839 -2.8043 -2.8831 0 0 27.1961 -0.513207 -2.12143 -2.4648 -1.5727 2.6826 -14.1065 -4.0764 2.0871 -3.2298 -1.8647 1.8647 5.67352 15.9904 -16.6494 -2.6526 -1.5314 1.5314 -11.415 -21.8496 12.8582 8.2078 -6.7517 -1.5996 9.69146 -5.0552 11.9027 0 -44.3705 0.2846 -0.66943 19.8149 4.62075 1.77636e-015 -44.4279 -2.9822 -17.4675 -1.12969 1.37111 1.77636e-015 -8.7287 10.7106 1.43968 -10.4702 0.240989 -8.2078 -6.7517 -1.5996 -6.01333 -4.19449 -11.4997 0 -44.3705 0.2862 1.09541 13.6534 1.05226 0 -44.4277 -2.9838 15.7054 9.15916 -0.393384 -3.55271e-015 -8.7287 10.7106 -6.70059 -7.78907 -0.46445 
